<svg width="32" height="19" fill="none" xmlns="http://www.w3.org/2000/svg"><path d="M8.844.72c1.696 0 3.136.344 4.32 1.032 1.184.688 2.084 1.696 2.7 3.024.624 1.328.936 2.948.936 4.86 0 1.8-.336 3.364-1.008 4.692-.664 1.32-1.604 2.344-2.82 3.072-1.208.72-2.636 1.08-4.284 1.08-1.688 0-3.128-.344-4.32-1.032-1.184-.688-2.088-1.696-2.712-3.024-.616-1.328-.924-2.948-.924-4.86 0-1.8.332-3.36.996-4.68C2.4 3.556 3.344 2.532 4.56 1.812 5.776 1.084 7.204.72 8.844.72Zm2.292 9.48c0-1.968-.092-3.54-.276-4.716-.176-1.176-.448-2.024-.816-2.544-.36-.52-.82-.78-1.38-.78-.512 0-.936.228-1.272.684-.336.448-.588 1.176-.756 2.184-.16 1-.24 2.324-.24 3.972 0 1.968.088 3.54.264 4.716.184 1.176.456 2.024.816 2.544.368.52.832.78 1.392.78.512 0 .936-.224 1.272-.672.336-.456.584-1.184.744-2.184.168-1.008.252-2.336.252-3.984Zm13.463-.912-.408-.396c.16-.048.332-.088.516-.12s.38-.056.588-.072c.208-.024.428-.036.66-.036 1.144 0 2.148.176 3.012.528.864.352 1.536.856 2.016 1.512.488.648.732 1.424.732 2.328 0 1.104-.284 2.064-.852 2.88-.56.816-1.364 1.448-2.412 1.896-1.04.448-2.284.672-3.732.672-1.4 0-2.564-.168-3.492-.504-.928-.336-1.624-.8-2.088-1.392a3.234 3.234 0 0 1-.684-2.028c0-.768.252-1.396.756-1.884.504-.496 1.128-.744 1.872-.744.808 0 1.412.212 1.812.636.408.416.612.972.612 1.668v1.284c0 .464.1.86.3 1.188.208.328.5.492.876.492s.696-.112.96-.336c.264-.232.468-.596.612-1.092.144-.504.216-1.164.216-1.98 0-1.216-.192-2.084-.576-2.604-.376-.52-.896-.78-1.56-.78h-.864c-.328 0-.572-.072-.732-.216-.16-.152-.24-.364-.24-.636 0-.208.044-.392.132-.552.096-.16.264-.344.504-.552l5.34-4.644.144 1.488h-6.36c-.336 0-.596.06-.78.18-.184.112-.308.3-.372.564l-.24.948c-.056.232-.164.42-.324.564-.152.136-.376.204-.672.204-.288 0-.524-.076-.708-.228-.184-.16-.26-.4-.228-.72l.432-4.488c.032-.344.172-.616.42-.816.248-.2.58-.3.996-.3h9.756c.488 0 .836.06 1.044.18.208.12.312.312.312.576 0 .176-.068.376-.204.6-.128.224-.404.532-.828.924L24.6 9.288Z" fill="#83888F"/></svg>